<svg version="1.2" xmlns="http://www.w3.org/2000/svg" viewBox="0 0 536 465" width="536" height="465">
	<title>pageturn_logo_png</title>
	<style>
		.s0 { opacity: .96;fill: #054382 } 
		.s1 { opacity: .61;fill: #06427a } 
		.s2 { opacity: .21;fill: #587096 } 
		.s3 { opacity: .27;fill: #0c447e } 
	</style>
	<g id="Background">
		<path id="Path 0" fill-rule="evenodd" class="s0" d="m186.8 345c2.3 0 5.8 0.7 7.7 1.5 2.2 0.9 3.7 1.1 4 0.5 0.3-0.6 2.9-1 5.7-1 3.6-0.1 5.7 0.4 6.5 1.5 1 1.2 1 1.8 0 3-0.6 0.9-2.1 1.6-3.2 1.8-1.9 0.2-2 1.1-2.5 17.2-0.4 14-0.8 17.6-2.3 19.8-0.9 1.5-3.2 3.6-5 4.7-2.7 1.7-4.6 2-11.7 1.8-7.6-0.3-8.5-0.5-8.8-2.3-0.2-1.1 0.2-2.3 1-2.7 0.7-0.4 4.1-0.8 7.5-0.8 3.5 0 7.5-0.6 8.9-1.3 1.5-0.7 3-2.6 3.7-5q1.2-3.7 0.2-4.7c-0.6-0.6-2.6-0.4-5.5 0.6q-4.5 1.5-9 0.8c-2.5-0.3-6-1.7-7.8-3-1.7-1.3-4.1-3.9-5.2-5.7-1.4-2.3-2-4.9-2-9.2 0-4.8 0.5-6.7 2.6-9.7 1.5-2 4.5-4.6 6.8-5.7 2.2-1.2 6-2.1 8.3-2.1zm-9.2 13c-0.8 1.6-1.5 4.1-1.5 5.5 0 1.5 1.4 3.9 3.5 6 2.8 2.8 4.3 3.5 7.2 3.5 2.1 0 4.9-0.8 6.2-1.7 1.4-1 3-3.2 3.7-4.8 0.9-2.1 1-4.1 0.4-6.8-0.6-2-2-4.4-3.3-5.2-1.2-0.8-3.6-1.7-5.2-2-1.7-0.3-4.4 0.2-6.3 1-1.7 0.8-3.9 2.9-4.7 4.5z"/>
		<path id="Path 1" class="s1" d="m179.5 345.4c-1.7 0.8-3.9 2.2-5 3.1-1.1 0.9-0.2 0.7 2-0.6 2.2-1.3 6.5-2.6 9.5-3l5.5-0.6c-7-0.2-10.3 0.4-12 1.1zm26 7.9c-0.2 0.7-0.3 8.2-0.2 16.7l0.3 15.5c0.4-30.8 0.6-32.5 2.1-32.9 1.7-0.3 1.7-0.4 0-0.5-1 0-1.9 0.5-2.2 1.2zm-27.1 36.5c-0.7 0.4 1.8 0.6 5.5 0.4 3.6-0.2 7.3-0.5 8.1-0.6 0.8-0.2-1.7-0.4-5.5-0.5-3.8 0-7.5 0.3-8.1 0.7zm4.6 6.9c2.5 0.2 6.1 0.2 8 0 1.9-0.2-0.1-0.4-4.5-0.4-4.4 0-6 0.2-3.5 0.4z"/>
		<path id="Path 2" class="s2" d="m206.3 374.5c0 3.9 0.2 5.2 0.4 3 0.2-2.2 0.2-5.4 0-7-0.2-1.6-0.4 0.1-0.4 4z"/>
		<path id="Path 3" fill-rule="evenodd" class="s0" d="m280.1 24c16.3 0 26.1 0.4 26.4 1 0.3 0.6-0.4 7.4-1.6 15.3-1.1 7.8-3.4 22.7-4.9 33.2-1.6 10.4-4 27.1-5.5 37-1.4 9.9-3.7 25.2-5.1 34-1.4 8.8-2.4 17.3-2.2 19 0.2 1.7 0.7 3 1.3 3 0.5 0 1.1-0.9 1.3-2 0.2-1.1 1-3.3 1.7-5 0.8-1.7 2.5-7.1 3.9-12 1.4-4.9 3-11 3.7-13.5 0.6-2.5 1.5-5.4 1.9-6.5 0.4-1.1 1.7-4.7 2.8-8 1.1-3.3 3-9.4 4.2-13.5 1.2-4.1 2.8-9.3 3.5-11.5 0.7-2.2 2.9-9.6 5-16.5 2.1-6.9 5.2-17.2 7.1-23 1.8-5.8 3.8-12.4 4.3-14.8 0.6-2.3 1.9-4.6 2.8-5.1 1-0.5 3.4-1.1 5.3-1.2 1.9-0.2 4.1 0 4.7 0.4 0.7 0.4 1.3 1.5 1.3 2.4 0 1-1.2 6.1-2.6 11.3-1.4 5.2-3.2 11.7-3.9 14.5-0.8 2.7-3 10.8-5.1 18-2 7.2-4.5 15.9-5.5 19.5-1.1 3.6-1.9 7.3-1.9 8.2 0 1-0.5 2-1 2.3-0.6 0.3-1 1.4-1 2.5 0 1.1-0.9 4.8-1.9 8.2-1.1 3.5-3.3 10.8-5 16.3-1.7 5.5-5.1 16.7-7.6 25-2.5 8.2-7.3 23.8-10.7 34.5-3.4 10.7-7.6 24-9.4 29.5-1.9 5.5-3.4 10.8-3.4 11.7 0 1 0.3 1.8 0.7 1.8 0.5 0 3.9-2.5 7.8-5.6 3.9-3.1 12.2-9.4 18.5-14.1 6.3-4.7 13.2-9.9 15.2-11.4 2.1-1.6 4-2.9 4.3-2.9 0.3 0 4.4-2.6 9.2-5.8 4.9-3.2 11.5-7.3 14.8-9.2 3.3-1.8 8.5-4.6 11.5-6.1 3-1.6 12-6.1 20-10 8-4 16.5-8.2 19-9.4 2.5-1.2 8.3-3.5 13-4.9 4.7-1.5 11.6-3.7 15.5-4.9 7-2.2 7-2.2 29.8-0.7 16.7 1.1 22.7 1.8 22.7 2.7 0 0.7-1 1.7-2.3 2.2-1.2 0.5-4.3 1.6-7 2.5-2.7 0.9-4.6 2.1-4.4 2.8 0.2 0.7 2.3 1.8 4.8 2.5 2.4 0.7 7.3 2 10.9 3 4.2 1.2 6.5 2.4 6.5 3.3 0 1-3.5 2.7-10.7 5-5.8 1.9-11.2 4-12 4.7-1 1-0.5 1.5 2.7 2.9 2.2 0.9 4.9 2 6 2.4 1.1 0.5 4.7 1.8 8 3 3.3 1.2 7.9 3.1 10.2 4.1 2.4 1.1 4.7 1.9 5.3 1.9 0.5 0 0.9 0.8 0.7 1.7-0.2 1.4-5.6 2.9-27.7 8.1-15.1 3.4-27.9 6.7-28.5 7.3-0.5 0.5 2.8 0.9 9 0.9 9.6 0 10.2 0.1 14 3 2.2 1.6 4.4 3 5 3 0.5 0 3.9 1.4 7.5 3.1 3.6 1.7 10.4 5.4 15.1 8.3 8.1 4.8 8.7 5.4 10.3 10.1 0.9 2.7 2.3 7.7 3.1 11 0.8 3.3 2 7.6 2.6 9.5 0.6 1.9 1.4 4.4 1.9 5.5 0.4 1.1 2.8 8.7 5.3 17 2.4 8.2 4.2 15.5 3.8 16-0.4 0.7-11.8 0.8-33.6 0.4-18.1-0.4-69.5-1-114-1.3-44.6-0.4-84.4-0.9-88.5-1.1-5.3-0.4-8-1.1-9.2-2.3-0.9-0.9-2.4-4.2-3.2-7.2-0.8-3-2.3-7.8-3.3-10.5-1-2.8-2.3-5.9-2.9-7-0.6-1.1-1.5-1.7-2-1.4-0.5 0.4-2.5 4-4.5 8-2 4.1-4.4 9.4-5.3 11.9-0.9 2.5-2 5-2.4 5.5-0.5 0.7-12.6 0.8-36.7 0.4-19.8-0.4-60.5-1-90.5-1.4-30-0.4-68.7-1-117.5-2l-0.3-5c-0.2-2.8 0.8-10.5 2.2-17.3 1.4-6.7 2.6-12.4 2.6-12.7 0-0.3 2.5-0.5 5.5-0.5 3 0 5.5-0.4 5.5-1 0-0.6-1.7-1-3.8-1-2 0-4.4-0.6-5.3-1.3-0.8-0.7-2-2.1-2.6-3.2-0.7-1.3-0.7-3.2-0.2-5.3 0.5-1.7 1.3-4.7 1.8-6.5 0.5-1.7 3-8.9 5.5-16 2.5-7 4.6-13.6 4.6-14.7 0-1.1 1.2-5.7 2.6-10.3 1.5-4.5 3-8.6 3.4-9.2 0.4-0.6 1.8-4.2 3-8 1.1-3.8 2.9-7.8 3.8-8.8 0.9-1 2.8-1.7 4.2-1.7 1.4 0.1 4 1.4 5.7 3 1.8 1.7 4.4 3 5.8 3 1.4 0 2.7 0.4 3 1 0.3 0.6 4.8 1 10.5 1 5.5 0 12.4 0.5 15.2 1.1 2.9 0.6 5.7 1.5 6.3 2 0.5 0.5 2 0.9 3.2 0.9 1.3 0 3.1 0.4 4 0.9 1 0.5 3 1.4 4.5 2 1.6 0.6 3.8 1.5 5 2 1.3 0.5 6.3 2.1 11.3 3.6 4.9 1.5 10.8 3.3 13 4 2.2 0.7 6.2 2.2 9 3.2 2.7 1.1 7 2.3 9.5 2.7 2.5 0.4 8.1 1.8 12.5 3.2 4.4 1.3 9.1 2.4 10.5 2.4 1.6 0 2.2-0.3 1.5-0.9-0.6-0.6-3.7-1.7-7-2.5-3.3-0.8-8.9-2.4-12.5-3.4-3.6-1.1-9-3-12-4.2-3-1.2-8-2.8-11-3.6-3-0.8-6.4-1.8-7.5-2.3-1.1-0.5-5.9-2.7-10.8-5-4.8-2.3-9.2-4.1-9.7-4.1-0.6 0-1.8-0.4-2.8-0.9-0.9-0.5-4.2-1.9-7.2-3-3-1.1-8.4-2.9-12-4-3.6-1.1-9.9-3-14-4.2-4.1-1.2-9-2.5-10.8-3-1.7-0.5-3.9-1.9-4.7-3.2-1.3-2-1.3-2.9 0.5-9 1.3-4.4 2.5-6.7 3.5-6.7 0.8 0 2.9 1 4.6 2.2 1.7 1.3 6.6 3.3 10.8 4.6 4.2 1.2 11.4 3.3 16.1 4.6 4.7 1.3 12.1 4.1 16.5 6.1 4.4 2 11.3 5.2 15.2 7.1 4 1.9 7.5 3.4 7.8 3.4 0.3 0 3.4 1.3 7 3 3.6 1.7 6.9 3 7.5 3 0.5 0 2.9 0.9 5.2 1.9 2.4 1 6.5 2.8 9.3 3.9 2.7 1.1 8.4 3.1 12.5 4.3 4.1 1.3 9.9 3.6 12.7 5.1 2.9 1.6 5.7 2.8 6.3 2.8 0.5 0 2.9 0.9 5.2 2 2.4 1.1 4.9 2 5.5 2 0.7 0 1.3-0.4 1.3-1 0-0.6-0.3-1-0.8-1-0.4 0-1.6-0.8-2.7-1.7-1.2-1-3.5-2.8-5.3-4.1-1.8-1.2-3.5-2.2-4-2.2-0.4 0-1.6-0.8-2.7-1.7-1.1-1-3.6-3-5.5-4.4-1.9-1.5-5.3-4.3-7.5-6.3-2.2-2.1-9.2-7.2-15.5-11.3-6.3-4.2-13.2-8.8-15.4-10.2-2.1-1.4-7.7-6.6-12.5-11.6-4.7-4.9-11.5-11.9-15.1-15.5-3.6-3.6-9.2-8.5-12.4-11-3.2-2.5-8.3-6.9-11.2-9.8-4.6-4.4-5.3-5.6-4.8-8 0.3-1.5 1.7-4.5 3.1-6.7 1.5-2.2 8.2-9.2 15.1-15.5 6.9-6.3 14.5-13 17.1-14.8 2.5-1.8 4.9-3.2 5.3-3.2 0.5 0 3.3 2.5 6.3 5.5 3 3 5.5 6.4 5.5 7.5 0 1.1 1.7 3.9 3.8 6.3 2.1 2.3 6 7.5 8.7 11.5 2.8 4.1 6.1 8.1 7.5 9 1.4 0.8 5.2 4.1 8.4 7.1 3.3 3.1 7.7 7.6 10 10.1 2.2 2.5 6.6 7 9.7 10 3.1 3 8.3 6.9 11.5 8.7 3.3 1.8 6.5 3.2 7.1 3.3 0.7 0 1.3-0.7 1.3-1.5 0-0.8-3.2-9-7-18.2-3.9-9.3-8-18.7-9-21-1.1-2.4-2-5-2-5.8 0-0.8-0.5-1.5-1-1.5-0.6 0-1-0.9-1-2 0-1.1-0.4-2.8-0.9-3.7-0.5-1-2.5-5.4-4.5-9.8-1.9-4.4-4.2-10-5.1-12.5-0.9-2.5-2.4-6.3-3.4-8.5-1.1-2.2-2.7-5.8-3.6-8-1.7-3.8-1.7-4.1 0.1-7.2 1.3-2.3 3.6-4 7.4-5.7 3-1.3 6.6-2.7 8-3.1 1.4-0.4 3.6-0.2 5 0.4 1.9 0.8 3.7 3.9 7.9 13.8 3 7.1 6.6 15.5 8.1 18.8 1.5 3.3 3.5 7.6 4.3 9.5 0.8 1.9 3.4 7.8 5.7 13 2.3 5.2 5.1 11.8 6.2 14.5 1.1 2.8 3.8 9 6.1 13.8 2.3 4.8 4.5 8.8 4.9 8.7 0.5 0 0.8-0.9 0.8-2 0-1.1-0.7-4.8-1.5-8.2-0.8-3.5-2.5-11.7-3.9-18.3-1.3-6.6-3.2-15.8-4.1-20.5-0.9-4.7-2.5-12.3-3.5-17-1.1-4.7-2.9-13.5-4-19.5-1.5-7.7-1.8-11.3-1.1-12 0.6-0.5 1.3-0.8 1.5-0.5 0.3 0.3 2 6.6 4 14 1.9 7.4 5.1 19.8 7.1 27.5 2 7.7 6.1 23.4 9.1 35 3.1 11.6 7.3 27.8 9.4 36 2.1 8.3 5.3 20.2 7 26.5 1.7 6.3 3.8 14.4 4.6 18 0.8 3.6 1.9 7.2 2.3 8 0.7 1.3 1 1.2 1.8-0.5 0.6-1.1 0.9-3.1 0.7-4.5-0.2-1.4-0.6-11.7-0.9-23-0.3-11.3-0.9-21.2-1.3-22-0.3-0.8-1-11.2-1.4-23-0.4-11.8-1.2-30.7-1.8-42-0.6-11.3-1.4-27.7-1.8-36.5-0.5-8.8-0.6-16.6-0.4-17.3 0.3-0.9 6.4-1.2 26.3-1.2zm-21.4 5.8c-0.4 0.4-0.3 5.9 0.3 12.2 0.5 6.3 1.4 23.4 2 38 0.5 14.6 1.2 34.4 1.5 44 0.3 9.6 1 25.8 1.5 36 0.5 10.2 1 23.9 0.9 30.5 0 6.6 0.5 16.1 1.2 21 0.8 6.7 0.9 9.6 0 11.3-0.6 1.3-1.7 2-2.6 1.7-0.8-0.3-1.9-2.2-2.4-4.2-0.6-2.1-2.6-10.1-4.7-17.8-2-7.7-5-19.2-6.6-25.5-1.7-6.3-4.4-16-5.9-21.5-1.6-5.5-2.7-8.5-2.4-6.7 0.3 1.7 0 4.1-0.5 5.2-0.6 1.1-1.5 2-2 2-0.6 0-2.2-2.6-3.6-5.7-1.5-3.2-5.8-13-9.7-21.8-3.8-8.8-9.1-20.9-11.7-27-2.5-6-6.8-15.9-9.5-22-2.6-6-5.5-12.6-6.3-14.5-0.9-1.9-3.7-8.4-6.2-14.5-4.3-10-4.9-11-7.1-10.7-1.3 0.1-4.7 1.3-7.4 2.5-2.8 1.2-5.3 2.6-5.7 3.2-0.3 0.5-0.2 2.1 0.4 3.5 0.6 1.4 2 5.2 3.3 8.5 1.2 3.3 5.3 13.2 9 22 3.7 8.8 8.2 19.6 10 24 1.8 4.4 5.4 13 8 19 2.6 6.1 5.5 13 6.5 15.5 1 2.5 2.1 6.6 2.4 9.3 0.5 3.6 0.3 4.9-0.9 5.5-1 0.4-2.3-0.1-3.8-1.5-1.2-1.1-5.4-3.8-9.2-5.8-3.9-2-9.5-5.6-12.5-8-3-2.4-7.1-6.5-9-9-1.9-2.6-5.7-6.5-8.4-8.8-2.7-2.3-8.4-7.7-12.7-11.9-4.4-4.3-8.5-9-9.3-10.5-0.7-1.6-4.7-7.5-8.7-13.2-4.1-5.7-8.5-11.3-9.9-12.3-1.4-1-2.8-1.9-3.3-1.8-0.4 0-6.9 5.6-14.5 12.3-7.5 6.8-14.9 14-16.5 16-1.5 2.1-2.7 4.2-2.7 4.7 0 0.5 0.6 1.3 1.3 1.8 0.6 0.4 2.6 2.7 4.2 5.1 1.7 2.4 7.2 7.8 12.4 12 5.2 4.2 10.9 9.6 12.8 12.1 1.9 2.5 6.4 7.6 10.1 11.4 3.7 3.8 10.1 9.1 14.2 11.7 4.1 2.7 7.9 5.2 8.5 5.6 0.5 0.5 2.3 1.5 3.9 2.3 1.6 0.8 7.6 5.5 13.5 10.3 5.8 4.8 15.1 11.8 20.6 15.4 5.5 3.7 12.4 9.2 15.4 12.2 5.1 5.3 5.4 5.8 4.8 9.4-0.7 3.7-0.7 3.7 4.5 6.2 2.9 1.4 5.7 2.5 6.3 2.5 0.5 0 2 1.1 3.2 2.5 1.3 1.4 2.3 3.8 2.3 5.5 0 1.7-0.3 3.2-0.8 3.5-0.4 0.2-7.7-2.1-16.2-5.2-8.5-3-16-5.9-16.5-6.4-0.6-0.4-5.3-2.2-10.5-3.8-5.2-1.7-10.3-3.1-11.3-3.1-0.9 0-2.5-0.4-3.5-0.9-0.9-0.6-7.3-2.4-14.2-4.1-6.9-1.7-14.8-4-17.5-5-2.8-1-7.5-2.6-10.5-3.5-3-0.9-10.9-3.4-17.5-5.7-6.6-2.2-14.9-5.1-18.5-6.4-4.2-1.4-9.9-2.5-16-2.8-5.2-0.4-12.4-1.1-16-1.6-4.5-0.7-7.8-1.9-10.8-4-2.3-1.6-4.7-2.8-5.2-2.5-0.6 0.3-1.5 2.4-2 4.8-0.6 2.3-2.2 6.7-3.5 9.7-1.3 3-3.5 10-4.9 15.5-1.4 5.5-4.1 14.5-6.1 20-2 5.5-4.5 12.7-5.5 16-1.1 3.3-2 6.3-2 6.8 0 0.4 2.1 0.9 4.7 1.2 2.7 0.3 17.2 1.2 32.3 2.1 15.1 0.9 32.7 1.4 39 1.1 6.3-0.3 27.9-0.1 48 0.4 20.1 0.5 40.3 1.2 45 1.5 4.7 0.3 11.9 1.1 16 1.9 4.1 0.7 10.4 2.4 14 3.8 3.6 1.3 8.3 3.4 10.5 4.6 2.2 1.1 4.4 2.1 5 2.1 0.5 0 2 1 3.3 2.2 1.3 1.4 2 3 1.7 4.1-0.3 0.9-1.4 1.9-2.5 2.2-1.1 0.3-2.3 0.3-2.8 0.1-0.4-0.3-7.7-1.8-16.2-3.5-8.5-1.6-22-3.5-30-4.2-9.7-0.8-25.2-1-47-0.7-17.9 0.3-40.4 0.2-50-0.3-9.6-0.4-22.2-1.1-28-1.4-5.8-0.3-12.8-0.9-15.5-1.5-2.8-0.5-9.9-1-15.9-1.2l-11-0.3c-3.4 18.4-3.9 23.4-3.4 24 0.6 0.6 25 1.4 65.1 2.1 35.3 0.7 84.4 1.5 109.2 1.9 24.7 0.4 48.8 0.6 53.5 0.5 4.7 0 8.8-0.4 9.1-0.8 0.3-0.4 1.4-2.9 2.4-5.7 1-2.7 3.7-8.8 6-13.5 2.4-4.7 5-8.8 5.9-9.2 0.9-0.5 2-0.6 2.6-0.3 0.5 0.3 2.5 3.8 4.4 7.8 1.9 3.9 4.5 10.9 5.8 15.5l2.3 8.2c13.2 0 40.6 0.5 69.5 1 28.9 0.5 77.9 1.2 109 1.6 31.1 0.3 56.8 0.8 57.2 1 0.5 0.2 0.8-0.5 0.8-1.6 0-1.1-2.5-10.7-5.6-21.2-3.1-10.6-6.5-22.5-7.5-26.3-1-3.8-2.4-7.5-3.1-8.2-0.7-0.7-8.5-4.9-17.3-9.4-8.8-4.5-17.4-8.9-19-9.7-2.4-1.2-5-1.3-12.5-0.8-5.2 0.4-13 1.6-17.3 2.7-4.2 1-9.3 1.8-11.2 1.7-2-0.2-3.9 0.2-4.3 0.9-0.4 0.6-6.1 2.7-12.7 4.7-6.6 1.9-14.3 4.1-17 4.9-2.8 0.8-9.3 2-14.5 2.7-5.2 0.6-16 1.9-24 2.9-13.5 1.8-14.7 1.8-18 0.2-2-0.9-3.6-2.5-3.8-3.6-0.2-1.4 0.5-2.4 2.5-3.2 1.5-0.7 7.3-2.2 12.8-3.3 5.5-1.1 11.6-2.5 13.5-3 1.9-0.6 8.4-2.2 14.5-3.5 6-1.3 18.2-4 27-6.1 8.8-2 22.7-5.2 31-7.1 8.2-1.9 19.9-4.5 26-5.8 6-1.3 14.1-3.1 18-4 3.9-0.9 8.3-1.9 9.9-2.3 1.6-0.4 3-1 3.2-1.4 0.2-0.5-3.3-2.2-7.9-3.9-4.5-1.6-11.3-4.2-15.1-5.7-3.7-1.5-7.2-3.4-7.7-4.2q-0.8-1.5 0.9-3.2c0.9-0.9 3.7-2.1 6.2-2.8 2.5-0.6 6.7-1.8 9.5-2.6 2.8-0.9 4.6-1.9 4-2.4-0.6-0.4-5.2-2-10.3-3.6-7-2.2-9.4-3.4-9.9-4.9-0.3-1.3 0.1-2.6 1.3-3.6 1.8-1.5 1.8-1.6-1.1-2.3-1.6-0.3-6.6-0.6-11-0.6-5.8 0-11 0.8-19 3-6.1 1.7-13 3.8-15.5 4.7-2.5 0.9-16.4 7.5-31 14.6-14.6 7.1-31.2 15.9-37 19.5-5.8 3.7-15.5 10.2-21.6 14.7-6.2 4.4-14.9 10.9-19.5 14.4-4.6 3.5-8.5 6.8-8.7 7.3-0.1 0.4-0.8 0.8-1.5 0.8-0.6 0-4.7 3.4-9 7.5-6.5 6.4-7.9 7.3-9.3 6.3-1.2-1-1.4-2.2-0.9-5.3 0.4-2.2 4-13.9 8-26 4.1-12.1 8.6-26.1 10-31 1.5-4.9 3.8-12.4 5-16.5 1.3-4.1 4.6-15.2 7.4-24.5 2.8-9.3 6.6-22.2 8.5-28.5 1.9-6.3 4.4-14.9 5.6-19 1.2-4.1 3-10.4 3.9-14 1-3.6 4-14.4 6.6-24 2.6-9.6 5-19.1 5.2-21 0.4-3.3 0.3-3.4-1.2-1.5-0.8 1.1-1.5 2.7-1.5 3.5 0 0.8-0.6 2.2-1.3 3-0.8 0.8-3 7.1-5.1 14-2.1 6.9-4.6 15.2-5.6 18.5-1.1 3.3-3.4 11-5.3 17-1.9 6.1-4.9 15.7-6.7 21.5-1.8 5.8-4.7 15.2-6.5 21-1.8 5.8-5.8 18.7-8.9 28.8-3.1 10-5.8 19.9-5.9 22-0.2 2-0.7 4.3-1 5-0.4 0.6-1.4 1.2-2.2 1.2-0.8 0-1.7-0.7-2-1.5-0.3-0.8-0.5-6.1-0.4-11.7 0-5.7 0.4-15.2 0.9-21.3 0.5-6.1 2.2-20 3.9-31 1.7-11 3.9-26.3 5.1-34 1.1-7.7 2.9-19.8 4-27 1.1-7.2 2.7-17.9 3.5-24 0.8-6 1.5-11.9 1.5-13 0-1.6-0.9-2.2-4.2-2.8-2.4-0.5-10.9-0.9-18.9-1-8-0.1-15.4 0-16.5 0.1-1 0.2-2.2 0.7-2.7 1zm-202.2 131.2c0.3 0.6 2 1.3 3.7 1.6 1.8 0.3 5.3 1.2 7.8 2 2.5 0.8 8.3 2.5 13 3.8 4.7 1.3 14.3 4.7 21.5 7.6 7.1 2.9 15 6.2 17.5 7.5 2.5 1.3 8.3 3.4 13 4.8 4.7 1.4 11.4 3.6 15 5 3.6 1.3 7.8 2.7 9.5 3 1.6 0.3 8.6 2.3 15.5 4.6 6.9 2.3 12.6 4 12.7 3.9 0.1-0.2-2.1-1.3-5-2.5-2.9-1.2-10.4-4-16.7-6.3-6.3-2.2-13.4-4.9-15.8-6-2.3-1.1-4.5-2-5-2-0.4 0-8.8-3.6-18.7-8.1-9.9-4.5-21.7-9.6-26.3-11.5-4.5-1.9-9.2-3.6-10.5-3.8-1.2-0.2-5.8-1.6-10.2-3-4.4-1.4-8.7-2.6-9.5-2.6-0.8 0-3.1-0.9-5.1-2-2-1.1-3.9-2-4.1-2-0.3 0-1.1 1.1-1.7 2.5-0.6 1.4-0.9 2.9-0.6 3.5zm51.5 101.4c33.5 0.3 41.9 0.1 30-0.5-9.1-0.5-32.3-1-51.5-1.1-19.3-0.2-32.8 0-30 0.4 2.7 0.4 25.9 0.9 51.5 1.2zm72 0.3c2.5-0.2 0.7-0.4-4-0.4-4.7 0-6.7 0.2-4.5 0.4 2.2 0.2 6 0.2 8.5 0zm-90.3 71.3c10.6 0 13.5 0.4 17 2 2.4 1.1 5.2 3.4 6.3 5.3 1.2 1.9 2 5 2 7.5 0 3.2-0.7 5-2.8 7.5-1.6 1.7-5 4.2-7.5 5.5-3.1 1.4-6.5 2.2-15.7 2.2l0.5 8.5 5.4 0.5c3.5 0.3 5.8 1.1 6.5 2.2 0.8 1.2 0.7 2-0.4 3.3-1.2 1.3-3.6 1.6-12 1.6-8.3 0-10.8-0.3-11.8-1.6-0.6-0.8-1-2.2-0.7-3 0.3-0.8 1.6-1.9 5.5-3.5l-0.3-15.7c-0.2-15.6-0.2-15.8-2.5-16.1-1.2-0.1-2.5-1-2.8-1.9-0.3-1-0.4-2.4 0-3 0.4-1 4.1-1.3 13.3-1.3zm0.3 22c5.8 0 9.2-0.5 11.2-1 2.1-0.6 4.5-2 5.3-3.2 0.8-1.3 1.5-2.9 1.5-3.5 0-0.7-1.1-2.4-2.5-3.8-2.2-2.2-3.4-2.5-9-2.5h-6.5zm175-22h40v8.3c0 4.5-0.4 8.8-0.8 9.5-0.4 0.8-1.6 1.2-2.7 1-1.6-0.3-2.1-1.3-2.5-5.7-0.4-4.8-0.8-5.6-3-6.2-1.4-0.4-3.5-0.4-4.8-0.1-1.3 0.4-2.4 1.7-2.6 3.2-0.2 1.4-0.3 7.9-0.1 14.5 0.1 6.6 0.3 12.6 0.4 13.3 0.1 0.7 1.5 1.2 3.3 1.2 1.8 0 4.2 0.6 5.3 1.4 1.6 1.2 1.8 1.8 0.9 3.3-1 1.6-2.6 1.8-13.4 1.8-10.5 0-12.4-0.2-13.4-1.7-0.8-1.3-0.8-2.1 0.2-3 0.7-0.7 3.2-1.5 9.7-2.3l0.2-15.3c0.3-14.3 0.2-15.3-1.7-16.2-1.1-0.6-3.2-0.9-4.8-0.7-2.5 0.2-2.7 0.6-3.2 5.6-0.3 3.5-1.1 5.8-2.2 6.5-1.2 0.8-2 0.7-3.3-0.4-1.2-1.2-1.6-3.4-1.5-9.7zm-124.8 11c3.6 0 7.1 0.6 9.3 1.7 2.3 1.2 4 3 5 5.5 0.9 2.3 1.5 7.1 1.5 12.3 0 7.4 0.2 8.5 1.7 8.5 1 0 2.4 0.3 3.1 0.7 0.9 0.5 1.2 1.7 0.2 6.3h-11.3c-6.2 0.1-13.7 0.1-16.7 0-4.6-0.1-6-0.5-8.3-2.8-2-2-2.8-3.8-2.8-6.3 0-2.1 0.9-4.6 2.3-6.4 1.2-1.6 4.1-3.7 6.3-4.7 2.6-1.2 6.4-1.8 11.2-1.8 6.2 0 7.3-0.3 7.3-1.8 0-1-0.7-2.4-1.7-3.3-1.2-1-3.4-1.4-8.2-1.1-3.7 0.1-8 0.4-9.6 0.5-2.6 0.1-3-0.2-3-2.3 0-2 0.7-2.7 4-3.7 2.2-0.7 6.5-1.2 9.7-1.3zm-10.4 25.5c0.1 0.8 0.7 1.7 1.4 2.1 0.7 0.4 2.8 0.6 4.8 0.6 1.9-0.1 5.4-0.8 7.7-1.7 3.1-1.1 4.3-2.1 4.3-3.6 0-1.8-0.7-2-6.8-2-4.4 0-7.6 0.6-9.1 1.6-1.3 0.9-2.4 2.2-2.3 3zm106.7-25.5c3.2-0.1 6.5 0.7 9.4 2.2 2.7 1.3 5.6 3.9 7.2 6.3 1.4 2.1 2.9 5.9 3.9 12.4h-15c-8.3 0-15.7 0.3-16.5 0.5-1.2 0.4-1.3 1-0.5 2.5 0.5 1.2 2.4 2.8 4.2 3.7 2.5 1.2 5 1.4 10.3 1 3.8-0.3 9-0.8 11.5-1.2 3.6-0.5 4.6-0.4 5.2 0.9 0.4 0.9 0.5 2.1 0.3 2.6-0.3 0.6-2.1 1.7-4 2.5-2.3 1-7.1 1.6-13.3 1.7-7.1 0-10.6-0.4-13-1.5-1.8-0.9-4.6-3.6-6.3-5.9-2.8-3.8-3.1-4.8-2.8-10.3 0.3-4.7 1-6.9 3-9.5 1.4-1.9 4.6-4.5 7-5.7 2.7-1.4 6.2-2.2 9.4-2.2zm-9.7 12c0.1 0.5 4.7 0.9 10.4 0.9h10.3c-5-4.4-6.6-5-10.8-5-3.1 0-6.2 0.7-7.6 1.6-1.3 0.9-2.4 2-2.3 2.5zm165.2-12c2-0.1 4.6 0.7 6.2 1.9 1.8 1.4 2.7 2.8 2.5 4.3-0.2 1.8-0.8 2.2-2.7 1.9-1.4-0.1-4.2-0.5-6.1-0.8-3.1-0.4-4.3 0-13.9 7.7l0.5 12.5 5.5 0.2c3 0.2 6.5 0.5 7.7 0.8 1.2 0.2 2.5 1.2 2.8 2.2 0.2 1-0.1 2.3-0.8 3-0.9 1-5.1 1.3-15.5 1.3-11.3 0-14.6-0.4-15.7-1.5-0.9-0.9-1.3-2.2-1-3 0.2-0.9 1.5-1.8 2.7-2 1.2-0.3 3.4-0.6 4.8-0.8 2.4-0.2 2.5-0.4 2.5-9.3 0.1-4.9 0-9.5-0.2-10.2-0.2-0.7-1.6-1.2-3.1-1.2-1.5 0-3.3-0.7-4-1.5-1-1.2-1-1.9 0-3.1 0.9-1.1 3-1.5 7.5-1.5 4.9 0 6.3 0.4 6.3 1.6 0 0.8 0.4 1.7 1 2 0.5 0.2 2.9-0.7 5.2-2 2.3-1.4 5.8-2.5 7.8-2.5zm38.5 0c2.2-0.1 5.5 0.8 7.5 1.8 1.9 1 4.2 3.4 5.2 5.2 1.3 2.5 1.8 5.8 1.8 11.7 0 6.8 0.3 8.5 1.8 9.5 1 0.7 2.1 1.8 2.5 2.5 0.3 0.7 0.1 1.9-0.6 2.8-0.8 1-2.9 1.5-6.5 1.5-2.9 0-5.9-0.3-6.7-0.5-0.9-0.3-1.5-1.7-1.5-3q0-2.5 2-3c1.8-0.5 2-1.4 2-9.8 0-6.4-0.4-9.6-1.3-10.4-0.7-0.6-2.4-1.3-3.7-1.7-1.4-0.3-3.8-0.2-5.4 0.2-1.6 0.3-4 1.8-5.3 3.2-2.1 2.2-2.4 3.4-2.4 10.2 0 6.2 0.4 7.8 1.6 7.8 0.8 0 2.1 0.6 3 1.5 1.1 1.1 1.2 2 0.5 3.5-0.9 1.7-2 2-8.5 2-6.2 0-7.7-0.4-8.5-1.8-0.5-1-0.6-2.2-0.2-2.9 0.3-0.6 1.7-1.6 2.9-2.2 2.1-1.1 2.3-1.8 2.2-10.4 0-8.9-0.1-9.3-2.7-11.4-2.5-1.9-2.6-2.3-1.2-3.8 1-1.1 3-1.6 6.2-1.6 2.6 0 5 0.5 5.3 1.1 0.3 0.6 1.5 0.4 3.2-0.5 1.5-0.9 4.6-1.5 6.8-1.5zm-107 1.5l0.3 12.5c0.1 7.9 0.7 12.9 1.5 13.7 0.6 0.8 2.7 1.3 4.7 1.3 1.9-0.1 5.4-1 12-4v-8.5c0-6.7-0.4-8.7-1.5-9-0.9-0.3-2.4-0.5-3.5-0.5-1.1 0-2.3-0.7-2.5-1.5-0.3-0.9-0.3-2.2 0-3 0.3-1.2 2.1-1.5 14.5-1.5v13.5c0 7.4 0.3 13.4 0.7 13.4 0.4 0 1.6 0.6 2.6 1.3 1.6 1 1.7 1.6 0.8 3.5-1 1.9-2 2.3-6.1 2.3-2.8 0-5.3-0.5-5.5-1-0.3-0.7-1.2-0.7-2.3-0.2-1 0.5-3.5 1.2-5.7 1.5-2.2 0.3-5.8 0.3-8-0.1-2.9-0.6-4.4-1.6-6.2-4.2-2.1-3.1-2.4-4.7-2.3-23l-3-1c-1.8-0.6-3.1-1.8-3.2-2.9-0.1-1 0.2-2.1 0.7-2.5 0.5-0.4 3.4-0.6 12-0.1z"/>
		<path id="Path 4" fill-rule="evenodd" class="s1" d="m284.5 23.4c7.1 0 10.3 0.1 7 0.3-3.3 0.2-9.1 0.2-13 0-3.9-0.2-1.1-0.3 6-0.3zm-29.5 36.1c0.5 2.8 0.9 8.4 0.9 12.5 0.1 4.1 0 7.3-0.2 7-0.2-0.3-0.7-5.9-0.9-12.5-0.4-7.5-0.3-10.1 0.2-7zm-130.4 3.5c0.2 0 0.4 0.1 0.4 0.3 0.1 0.1-1.8 1.5-4.2 3.1-2.4 1.6-10.1 8.3-30.3 26.8l11-10.7c6.1-5.9 13.6-12.7 16.9-15.1 3.2-2.4 6-4.4 6.2-4.4zm190 19.4c0 0.2-0.8 3.7-1.8 7.7-1.1 4.1-2.1 7.2-2.4 6.9-0.2-0.3 0.6-3.8 1.9-7.8 1.2-4 2.2-7 2.3-6.8zm-56.9 24.1c0.2 2.7 0.2 7.5 0 10.5-0.2 3-0.3 0.8-0.3-5 0-5.8 0.1-8.3 0.3-5.5zm2 42c0.2 2.7 0.2 7.5 0 10.5-0.2 3-0.3 0.8-0.3-5 0-5.8 0.1-8.3 0.3-5.5zm203.3 5.8c4.1 0 5.7 0.2 3.5 0.4-2.2 0.2-5.6 0.2-7.5 0-1.9-0.2-0.1-0.4 4-0.4zm14.5 1c3.9 0 5.2 0.2 3 0.4-2.2 0.2-5.4 0.2-7 0-1.6-0.2 0.1-0.4 4-0.4zm-313.8 48.7c0.5 0 2.2 0.3 3.9 0.6q3 0.7 2 1.6c-0.7 0.6-0.2 0.8 1.5 0.4 1.5-0.3 2.9-0.3 3.2 0.1 0.3 0.5-0.7 0.8-2.1 0.7-1.5 0-3.5-0.2-4.4-0.2-1-0.1-1.7-0.7-1.5-1.4 0.1-0.7-0.4-0.9-1.5-0.5-1 0.4-1.8 0.3-1.8-0.3 0-0.6 0.3-1 0.8-1zm-111.3 91.4c9.9 0 13.7 0.2 8.5 0.3-5.2 0.2-13.3 0.2-18 0-4.7-0.1-0.4-0.3 9.5-0.3zm136 2c8.3 0 11.8 0.2 8 0.3-3.8 0.2-10.6 0.2-15 0-4.4-0.1-1.2-0.3 7-0.3zm40.5 1c13.5 0 18.9 0.2 12 0.3-6.9 0.2-17.9 0.2-24.5 0-6.6-0.1-1-0.3 12.5-0.3zm123 2.9c4.1 0 5.7 0.2 3.5 0.4-2.2 0.2-5.6 0.2-7.5 0-1.9-0.2-0.1-0.4 4-0.4zm17.5 0.1c5.5 0 8 0.1 5.5 0.3-2.5 0.2-7 0.2-10 0-3-0.2-1-0.3 4.5-0.3zm67.5 1.1c19.5 0 27.4 0.1 17.5 0.2-9.9 0.2-25.9 0.2-35.5 0-9.6-0.1-1.5-0.2 18-0.2zm88.7 0.5c0.2 0.8 0.3 1.5 0.1 1.5-0.2 0-11.1-0.3-48.3-1.2l23.8 0.1c15.1 0.1 23.7-0.3 23.8-0.9 0-0.6 0.3-0.3 0.6 0.5zm-436.2 30.4c6.6 0 9.5 0.1 6.5 0.3-3 0.2-8.4 0.2-12 0-3.6-0.2-1.1-0.3 5.5-0.3zm175.1 0l40.9 0.1 0.2 8.2c0.2 4.6 0 8.9-0.5 9.7-0.4 0.8-0.6-2.8-0.2-17.4zm-160.8 0.6c0.7 0 2.6 0.6 4.2 1.5 1.7 0.8 4 2.7 5.1 4.2 1.1 1.5 2 3.2 2 3.8-0.1 0.5-1-0.5-2.1-2.3-1.1-1.8-3.8-4.1-6.2-5.2-2.3-1.1-3.7-2-3-2zm-27.8 3.5c0.4 1.1 1.8 2.2 3.1 2.5 2 0.4 2.4 1.2 2.4 3.8 0 3 0 3-0.2 0.2-0.2-2.1-0.8-3-2-3-1 0-2.3-0.6-3-1.3-0.7-0.7-1.3-1.9-1.2-2.7q0.1-1.5 0.9 0.5zm203.5 2.8l-3.2 0.3c-3 0.3-3.3 0.7-3.4 4.1-0.1 3.4-0.2 3.4-0.6 0.8-0.2-1.7-0.1-3.6 0.2-4.3 0.3-0.7 2-1.2 7-0.9zm2 1.2l0.3 15c0.1 8.2-0.1 15.3-0.5 15.7-0.4 0.4-0.5-6.4-0.3-15zm148.8 2.6c2.1-0.1 5.4 0.7 7.4 1.6 2 1 4.1 2.4 4.7 3.2 0.6 0.8-0.4 0.4-2.4-0.9-1.9-1.3-5.7-2.7-8.5-3.1-4.5-0.6-4.6-0.7-1.2-0.8zm-112.1 0.9c3.2 0 5.8 0.3 5.8 0.7 0 0.4-2.8 0.8-6.2 0.8-6.1 0-6.3 0-6.3 2.6 0 1.5-0.3 2.5-0.7 2.3-0.4-0.3-0.8-1.2-1-2.2-0.1-1 0.5-2.4 1.2-3 0.8-0.7 4.1-1.2 7.2-1.2zm24.3 0.3c3.9 0 5.2 0.2 3 0.4-2.2 0.2-5.3 0.2-7 0-1.6-0.2 0.2-0.4 4-0.4zm29.2-0.3c5.5 0 6.4 0.2 7.1 2 0.5 1.3 1.3 1.8 2.2 1.5 1.1-0.5 1.3-0.3 0.5 0.5-0.5 0.7-1.5 0.9-2.2 0.6-0.7-0.4-1.3-1.3-1.3-2.1 0-1.2-1.3-1.5-6.3-1.5-3.6 0-6.9 0.5-7.7 1.2-1.2 1.1-1.2 1 0-0.5 1-1.3 2.7-1.7 7.7-1.7zm11.2 11c0.2 0-0.5 1-1.7 2.2-1.6 1.7-2.2 3.7-2.5 14.3l-0.4-6c-0.2-5.1 0-6.4 1.9-8.3 1.2-1.2 2.4-2.2 2.7-2.2zm-141.9 10.4c8.6 0 12.2 0.1 8 0.3-4.1 0.2-11.1 0.2-15.5 0-4.4-0.2-1-0.3 7.5-0.3z"/>
		<path id="Path 5" class="s3" d="m283.5 22.7c2.8 0.2 6.8 0.2 9 0 2.2-0.2-0.1-0.3-5-0.3-4.9 0-6.8 0.1-4 0.3zm-25.5 1c3 0.2 7.5 0.2 10 0 2.5-0.2 0-0.3-5.5-0.3-5.5 0-7.5 0.1-4.5 0.3zm43.6 0c5 0.4 5.1 0.5 5.5 3.9l0.4 3.4v-7.5l-11-0.2zm29.3 10.1c-1.1 1.4-1.1 1.5 0.1 0.5 0.8-0.7 3.3-1.3 5.7-1.3 3.1 0 4.6 0.5 5.3 1.8 0.5 0.9 1 1.3 1 0.7 0-0.5-0.5-1.6-1.2-2.3-0.7-0.7-3.2-1.2-5.4-1.2q-4.2 0-5.5 1.8zm-77.5 11.7c0 5.5 0.1 7.5 0.3 4.5 0.2-3 0.2-7.5 0-10-0.2-2.5-0.3 0-0.3 5.5zm-124.9 105.5c3.9 3.9 7.2 7 7.5 7 0.3 0-2.5-3.1-6.2-7-3.7-3.8-7.1-7-7.5-7-0.4 0 2.4 3.1 6.2 7zm-61.1 28.2c0.6 0.4 3.8 0.7 7.1 0.7 3.3 0 5.6-0.2 5-0.4-0.5-0.2-3.8-0.5-7.1-0.7-3.4-0.2-5.7 0-5 0.4zm80.6 21.3c0.8 0.9 4 2.1 7 2.7 3 0.6 6.2 1.3 7 1.6 0.8 0.3 1.3 0.2 1-0.1-0.3-0.4-4.1-1.8-8.5-3.2-6-1.9-7.6-2.2-6.5-1zm-132.3 54.5c2 2.3 2.1 2.6 0.5 3.6-1.3 0.9-0.6 1 3.5 0.5 2.8-0.3 5.5-0.9 5.9-1.3 0.4-0.5-1-0.8-3.2-0.8-2.6 0-4.7-0.8-6.4-2.2l-2.5-2.2zm2.3 40.7c3.6 0.2 9 0.2 12 0 3-0.2 0.1-0.4-6.5-0.4-6.6 0-9.1 0.2-5.5 0.4zm40.5 1c6 0.2 15.5 0.2 21 0 5.5-0.2 0.5-0.3-11-0.3-11.6 0-16.1 0.1-10 0.3zm262 5c4.9 0.2 12.6 0.2 17 0 4.4-0.2 0.3-0.4-9-0.4-9.4 0-13 0.2-8 0.4zm3.9 55.7c0 7.2 0.1 9.9 0.3 6 0.2-3.8 0.2-9.7 0-13-0.2-3.3-0.3-0.1-0.3 7zm24.8 0.8l-0.2 13.7 5.5 3.1c-4.3-3.9-4.5-5-4.8-17.3l-0.3-13.3zm-9.4-4.7c0.8 0.3 1.2 2.9 1.2 7.7 0 4.5-0.4 7.8-1.2 8.7-1.1 1.3-1.1 1.3 0.5 0 1.6-1.2 1.8-2.6 1.5-8.8-0.2-5.6-0.7-7.5-1.8-7.8-0.8-0.2-0.9-0.1-0.2 0.2zm29 0.1c0.8 0.3 1.2 3.1 1.2 9.4v9c-5.8 0.5-5.7 0.5-2.7 0.5h3.2c0.5-18.6 0.4-19.5-1.2-19.4-1 0-1.2 0.2-0.5 0.5zm52.5 2.8c-1.4 1.9-1.7 3.7-1.3 9.1 0.4 5 0.9 6.9 2 7.2 0.8 0.1 1 0.1 0.3-0.2-0.9-0.4-1.3-2.8-1.3-7.3 0-4.3 0.5-7.5 1.5-9 0.8-1.2 1.3-2.2 1-2.2-0.2 0-1.2 1.1-2.2 2.4zm15.9 6.8c-0.2 7-0.4 8-2.7 9.8-1.4 1.1-2.5 2.4-2.5 3 0 0.5 1.4-0.4 3-2 2.9-2.9 3-3.3 2.7-10.8l-0.3-7.7zm8 0.5c-0.2 8-0.1 8.3 2.6 9.8 2.7 1.5 2.7 1.5 0.6-0.3-1.8-1.5-2.3-3.1-2.6-9.8l-0.4-8zm-356 4.5l0.3 4.3h10.5l-10-0.5c0-6.4 0.4-7.1 2.3-7.4 1.8-0.3 1.7-0.4-0.6-0.5-2.7-0.1-2.8 0-2.5 4.1zm322.8-0.2c0 2.5-0.4 4-1.2 3.9-0.7 0-2 0.7-2.8 1.6-1.4 1.5-1.2 1.5 1.8 0.1 2.8-1.4 3.2-2.1 3.2-5.6 0-2.2-0.2-4-0.5-4-0.3 0-0.5 1.8-0.5 4zm-26 4.9c6.7 0.5 7.6 0.8 8.7 3.1 1 1.8 1.3 2 1.3 0.7 0-0.9-0.7-2.4-1.5-3.2-1.1-1.1-3.4-1.5-8.7-1.3l-7.3 0.1zm-107.5 7.8c3.3 0.2 8.3 0.2 11 0 2.8-0.2 0.1-0.3-6-0.3-6 0-8.3 0.2-5 0.3zm96 0c3.3 0.2 8.3 0.2 11 0 2.8-0.2 0.1-0.3-6-0.3-6 0-8.3 0.2-5 0.3z"/>
		<path id="Path 6" class="s2" d="m473 154.7c1.9 0.2 5.3 0.2 7.5 0 2.2-0.2 0.6-0.4-3.5-0.4-4.1 0-5.9 0.2-4 0.4zm-113.5 148c7.7 0.2 20.5 0.2 28.5 0 8-0.1 1.7-0.3-14-0.3-15.7 0-22.2 0.2-14.5 0.3zm98.5 1c2.5 0.2 6.8 0.2 9.5 0 2.8-0.2 0.7-0.3-4.5-0.3-5.2 0-7.5 0.1-5 0.3z"/>
		<path id="Path 7" class="s1" d="m281 27.7c3 0.2 7.5 0.2 10 0 2.5-0.2 0-0.3-5.5-0.3-5.5 0-7.5 0.1-4.5 0.3zm-45.5 99.5c-0.8 1-0.7 1.1 0.5 0.3 1.2-0.8 1.3-0.6 0.7 0.8-0.4 0.9-0.3 1.7 0.3 1.7 0.6 0 0.8 0.9 0.5 2-0.3 1.1-0.1 1.8 0.5 1.5 0.6-0.3 1.3 1 1.6 2.8 0.3 1.7 0.8 3 1 2.7 0.3-0.3-0.2-3-1.1-6-1-3-2-5.9-2.4-6.3-0.4-0.5-1.1-0.3-1.6 0.5zm26.8 9.3c0 3.8 0.2 5.2 0.4 3 0.2-2.2 0.2-5.3 0-7-0.2-1.7-0.4 0.2-0.4 4zm-133.3 8.8c4.1 4.3 8.9 8.8 10.5 9.9 1.7 1.2 2.6 1.7 2 1.2-0.6-0.5-5.3-5-10.5-9.9l-9.5-9zm153.2 36.7c-0.2 9.5 0 11.8 1.3 13 1.5 1.3 1.8 1.3 2.6 0 0.5-0.8 0.9-3 0.9-4.8 0-1.7 0.3-4 0.7-5 0.3-1 0.2-1.4-0.3-0.9-0.5 0.5-1.1 3-1.4 5.5-0.3 2.6-0.9 4.7-1.5 4.7-0.6 0-1.2-5-1.5-12l-0.6-12zm-114.2 30c3.1 1 6.4 1.9 7.5 1.9 1.1 0-0.7-0.9-4.1-2-3.5-1-6.8-1.9-7.5-1.8-0.8 0.1 1.1 0.9 4.1 1.9zm35.5-0.6l2 1.5c-3.6 0.8-3.5 0.9-1.5 1 1.4 0 3 0.5 3.5 1.1 0.7 0.8 1.4 0.6 2.3-0.5 0.7-0.8 1.1-2.3 0.9-3.3-0.3-1.2-0.5-1-0.5 0.5-0.1 1.3-0.8 2.3-1.7 2.3-0.8 0-1.5-0.4-1.5-0.8 0-0.5-1.2-1.4-2.7-2.1-2.5-1-2.6-1-0.8 0.3zm251.5 9.3c2 0.2 5.3 0.2 7.5 0 2.2-0.2 0.7-0.4-3.5-0.4-4.1 0-5.9 0.2-4 0.4zm-35.5 5.2c-0.4 0.4-3.4 1.6-6.8 2.5-3.4 0.9-5.9 1.9-5.7 2.1 0.3 0.3 3-0.2 6-1.1 3.1-0.9 6.2-2.2 7-3 0.8-0.8 1.2-1.4 0.8-1.4-0.4 0-1 0.4-1.3 0.9zm-43.5 7.3c-3 0.5-5.2 1.1-5 1.4 0.3 0.2 3.6 0 7.3-0.6 3.7-0.5 6.7-1.2 6.7-1.5 0-0.3-0.7-0.4-1.7-0.4-1 0.1-4.2 0.6-7.3 1.1zm-90.5 11l-7 7.3c11.6-10.9 15.2-14.1 15.4-14.3 0.3-0.1 0.1-0.2-0.5-0.2-0.5 0-4 3.3-7.9 7.2zm-245 9.5c2.2 0.2 6.1 0.2 8.5 0 2.5-0.2 0.7-0.4-4-0.4-4.6 0-6.7 0.2-4.5 0.4zm18.5 1c2.5 0.2 6.1 0.2 8 0 2-0.2-0.1-0.4-4.5-0.4-4.4 0-5.9 0.2-3.5 0.4zm20.5 1c4.4 0.2 11.2 0.2 15 0 3.9-0.1 0.3-0.3-8-0.3-8.2 0-11.4 0.2-7 0.3zm49.5 0c6.9 0.2 18.6 0.2 26 0 7.5-0.1 1.8-0.3-12.5-0.3-14.3 0-20.3 0.2-13.5 0.3zm-20.5 4c2.2 0.2 6.1 0.2 8.5 0 2.5-0.2 0.7-0.4-4-0.4-4.6 0-6.7 0.2-4.5 0.4zm-45 3c2.8 0.2 6.8 0.2 9 0 2.2-0.2 0-0.3-5-0.3-4.9 0-6.7 0.1-4 0.3zm39 2c3.3 0.2 9 0.2 12.5 0 3.6-0.2 0.9-0.3-6-0.3-6.8 0-9.8 0.1-6.5 0.3zm57.5 4c4.2 0.2 10.7 0.2 14.5 0 3.9-0.1 0.5-0.3-7.5-0.3-7.9 0-11.1 0.2-7 0.3zm-128 22c4.7 0.2 11.9 0.2 16 0 4.2-0.1 0.3-0.3-8.5-0.3-8.8 0-12.1 0.2-7.5 0.3zm108.5 2c7.7 0.2 19.9 0.2 27 0 7.2-0.1 0.9-0.3-14-0.3-14.8 0-20.7 0.2-13 0.3zm93 1.4c1.1 0.4 5.4 0.8 9.5 0.7 4.2 0 7.1-0.1 6.5-0.3-0.5-0.2-4.8-0.5-9.5-0.8-4.6-0.2-7.6-0.1-6.5 0.4zm164 3.6c8.8 0.2 22.8 0.2 31 0 8.3-0.1 1.1-0.3-16-0.3-17 0-23.8 0.2-15 0.3zm62.5 1c9.1 0.2 23.5 0.2 32 0 8.6-0.1 1.1-0.3-16.5-0.3-17.6 0-24.5 0.2-15.5 0.3z"/>
		<path id="Path 8" class="s3" d="m259.3 54.5c0 3.9 0.2 5.2 0.4 3 0.2-2.2 0.2-5.4 0-7-0.2-1.6-0.4 0.1-0.4 4zm1.1 23c0 6 0.1 8.3 0.3 5 0.2-3.3 0.2-8.3 0-11-0.2-2.8-0.3 0-0.3 6zm-163 14.8c-2.8 2.8-5.6 6.1-6.4 7.2-0.8 1.1-0.9 1.5-0.4 1 0.6-0.5 3.7-3.8 6.9-7.3 3.2-3.4 5.6-6.2 5.4-6.2-0.3 0-2.7 2.4-5.5 5.2zm334.6 68c-4.1 1.1-7.3 2.2-7 2.4 0.3 0.2 4.1-0.5 8.5-1.7 4.4-1.2 8.2-2.3 8.4-2.5 0.2-0.2-0.2-0.4-1-0.3-0.8 0-4.8 1-8.9 2.1zm15-1.5c1.9 0.2 5.3 0.2 7.5 0 2.2-0.2 0.6-0.4-3.5-0.4-4.1 0-5.9 0.2-4 0.4zm13.6 1c2.1 0.4 2.1 0.5 0.1 2.1-1.3 1.2-1.7 2.4-1.3 3.9 0.3 1.3 1.2 2.3 1.8 2.3 1 0.1 1-0.2 0-1.5-0.6-0.8-1-2.2-0.7-3 0.3-0.8 1.2-1.5 2-1.5 0.8 0 1.5-0.7 1.5-1.5q0-1.5-2.8-1.4c-2.1 0.1-2.3 0.3-0.6 0.6zm-196.2 22.3c0 6.3 0.1 8.8 0.3 5.5 0.2-3.3 0.2-8.5 0-11.5-0.2-3-0.3-0.3-0.3 6zm-200.4 2.7c1.9 0.2 5.3 0.2 7.5 0 2.2-0.2 0.6-0.4-3.5-0.4-4.1 0-5.9 0.2-4 0.4zm133.7 24.8c-0.3 0.6 0.5 1.6 1.8 2.2 1.4 0.7 3.3 1.3 4.2 1.3 1.5 0 1.4-0.2-0.5-1.5-1.2-0.8-2.7-1.3-3.2-1-0.6 0.3-1.1-0.1-1.3-0.8-0.2-0.7-0.6-0.8-1-0.2zm203.3 16.5c0 0.6-0.7 0.7-1.7 0.4-0.9-0.3-1.8-0.1-2 0.5-0.1 0.6-1 0.9-1.8 0.6-0.8-0.3-1.5-0.1-1.5 0.5 0 0.6-0.7 1-1.6 1-0.8 0-1.7 0.4-1.8 0.8-0.2 0.5 2.9-0.1 6.9-1.2 4-1.2 7.6-2.4 8.1-2.9 0.4-0.4-0.5-0.7-1.9-0.7-1.5 0-2.7 0.4-2.7 1zm-23.3 4.6c-1.5 0.2-2.7 0.8-2.7 1.4 0 0.6-1.1 0.8-2.5 0.5-1.4-0.3-2.5-0.1-2.5 0.5 0 0.6 0.4 1 1 1 0.5 0 4.3-0.5 8.2-1.2 5.3-0.8 6.7-1.3 5.3-1.9-1.1-0.4-2.5-0.7-3-0.7-0.6 0.1-2.2 0.3-3.8 0.4zm-351.2 22.1c1.6 0.2 4.8 0.2 7 0 2.2-0.2 0.8-0.4-3-0.4-3.9 0-5.7 0.2-4 0.4zm22.5 7.2c0.8 0.4 3.7 0.5 6.5 0.1l5-0.7c-10.4-0.2-12.4 0.1-11.5 0.6zm24.5 0.8c6 0.2 15.5 0.2 21 0 5.5-0.1 0.5-0.3-11-0.3-11.6 0-16.1 0.2-10 0.3zm79.9 1.3c0.3 0.6 3.6 0.9 7.3 0.8 3.8-0.1 7.7-0.5 8.8-0.9 1.2-0.5-1.9-0.8-7.4-0.8-5.9-0.1-9.1 0.3-8.7 0.9zm30.6 2c6.3 0.4 14.2 1.1 17.5 1.5 3.3 0.3 6.3 0.8 6.7 1.1 0.5 0.2 1 0.1 1.2-0.4 0.3-0.4-1.2-1.1-3.2-1.5-2-0.4-10.5-0.9-18.7-1.2l-15-0.4zm-154.5 0.5c0.5 0.2 5 0.6 10 0.8 4.9 0.3 7.9 0.1 6.5-0.3-1.4-0.4-5.9-0.8-10-0.8-4.1 0-7.1 0.2-6.5 0.3zm78 5.3c2.7 0.2 7.5 0.2 10.5 0 3-0.2 0.8-0.4-5-0.4-5.8 0-8.3 0.2-5.5 0.4zm146.2 21c-0.6 2-1.4 2.3-8 2.6l-7.2 0.3c12.3 0.4 14.3 0.1 15.2-1.1 0.7-0.9 1.2-2.1 1-2.8-0.2-0.7-0.7-0.2-1 1zm-194.2 0c2.7 0.2 7.5 0.2 10.5 0 3-0.2 0.8-0.4-5-0.4-5.8 0-8.3 0.2-5.5 0.4zm129.5 2c2.5 0.2 6.1 0.2 8 0 1.9-0.2-0.1-0.4-4.5-0.4-4.4 0-6 0.2-3.5 0.4zm97 3c2.5 0.2 6.1 0.2 8 0 1.9-0.2-0.1-0.4-4.5-0.4-4.4 0-6 0.2-3.5 0.4zm32.3 0.5c0.7 0.4 15.6 0.6 33.2 0.5 17.6-0.1 28.2-0.3 23.5-0.4-4.7-0.2-19.6-0.4-33.2-0.6-13.5-0.1-24.1 0.1-23.5 0.5zm-228.9 46.1c-0.3 0.8-0.4 4.2-0.2 7.8l0.4 6.4 0.4-14.5 11.5-0.7c-9.8-0.3-11.7 0.1-12.1 1zm156.1 13.4l2 2.2-10 0.7c8.1 0.3 10.5 0 10.5-0.4 0.1-0.4-1-1.6-2.2-2.7l-2.3-2z"/>
		<path id="Path 9" class="s2" d="m273 28.7c3 0.2 8.2 0.2 11.5 0 3.3-0.2 0.8-0.3-5.5-0.3-6.3 0-9 0.1-6 0.3zm-145.5 235c4.9 0.2 12.6 0.2 17 0 4.4-0.1 0.3-0.3-9-0.3-9.3 0-13 0.2-8 0.3z"/>
	</g>
</svg>